<?xml version="1.0" standalone="no"?><!DOCTYPE svg PUBLIC "-//W3C//DTD SVG 1.1//EN" "http://www.w3.org/Graphics/SVG/1.1/DTD/svg11.dtd"><svg t="1680143730590" class="icon" viewBox="0 0 1024 1024" version="1.1" xmlns="http://www.w3.org/2000/svg" p-id="18042" xmlns:xlink="http://www.w3.org/1999/xlink" width="1000" height="1000"><path d="M852.247273 218.996364C704.232727 146.152727 557.149091 219.927273 535.272727 232.727273c-23.272727-11.869091-170.123636-87.738182-317.44-12.8-139.636364 69.818182-160.581818 269.498182-76.8 468.945454C215.738182 867.141818 325.818182 961.629091 381.672727 979.083636a256 256 0 0 0 153.6-4.189091c15.825455 4.421818 89.367273 26.530909 152.901818 4.189091 53.76-18.850909 168.494545-110.778182 241.338182-291.141818 83.781818-209.221818 71.214545-395.869091-77.265454-468.945454z" fill="#FF3B61" p-id="18043"></path><path d="M195.723636 587.636364a796.16 796.16 0 0 1-12.334545-104.96c0-44.683636-26.298182-23.272727-28.858182 5.352727a358.167273 358.167273 0 0 0 18.152727 111.476364c18.850909 59.345455 39.330909 94.952727 43.054546 90.298181s-11.869091-52.130909-20.014546-102.167272zM166.865455 433.338182c10.24 0 15.127273-8.843636 15.592727-20.48s-3.025455-21.410909-13.265455-21.410909a23.272727 23.272727 0 0 0-17.92 21.643636 19.549091 19.549091 0 0 0 15.592728 20.247273z" fill="#FFFFFF" p-id="18044"></path><path d="M443.578182 252.276364c2.094545-4.887273 30.952727 13.032727 75.636363 17.454545s80.058182-8.610909 81.454546-3.723636-16.989091 50.269091-85.410909 46.545454a76.101818 76.101818 0 0 1-71.68-60.276363z" fill="#ED0C4C" p-id="18045"></path><path d="M532.014545 235.054545A315.112727 315.112727 0 0 1 727.272727 116.363636c125.207273-19.083636 179.2 30.487273 228.538182 20.247273 0 0-42.821818 73.774545-171.985454 105.425455a535.272727 535.272727 0 0 1-251.81091-6.981819z" fill="#73D36E" p-id="18046"></path><path d="M516.654545 292.538182c-4.887273 1.861818 3.956364-25.832727 10.472728-63.069091 10.705455-62.836364 21.876364-153.134545 5.818182-178.036364s46.545455-16.989091 50.967272-7.912727a683.985455 683.985455 0 0 1-23.272727 131.723636c-12.567273 51.432727-32.116364 113.105455-43.985455 117.294546zM884.363636 654.661818a11.636364 11.636364 0 0 0-15.127272 6.516364c-6.050909 14.894545-12.334545 29.090909-18.850909 42.589091a11.636364 11.636364 0 0 0 20.945454 10.007272q10.007273-21.178182 19.316364-43.985454a11.636364 11.636364 0 0 0-6.283637-15.127273zM842.472727 744.727273a11.636364 11.636364 0 0 0-15.825454 4.421818l-3.490909 6.050909a11.636364 11.636364 0 1 0 20.014545 11.869091l3.723636-6.283636a11.636364 11.636364 0 0 0-4.421818-16.058182z" fill="#604D42" p-id="18047"></path><path d="M794.530909 801.047273c-56.785455 81.454545-121.018182 131.490909-159.418182 144.756363a240.872727 240.872727 0 0 1-146.385454-4.421818 11.403636 11.403636 0 0 0-6.283637 0l-4.421818 1.396364a238.778182 238.778182 0 0 1-141.963636 3.025454C285.789091 930.909091 177.105455 837.818182 102.4 661.178182 18.385455 461.032727 47.941818 274.385455 174.08 206.894545s256-13.730909 306.269091 12.567273a11.403636 11.403636 0 0 0 15.592727-4.887273 11.869091 11.869091 0 0 0-4.887273-15.825454C438.225455 170.821818 300.450909 113.105455 162.909091 186.181818S-7.912727 458.472727 80.989091 670.021818c78.429091 186.181818 191.534545 279.272727 248.552727 297.890909a239.010909 239.010909 0 0 0 69.818182 10.472728 287.418182 287.418182 0 0 0 84.712727-13.498182 262.050909 262.050909 0 0 0 156.858182 3.025454C681.658182 954.181818 749.847273 905.774545 814.545455 814.545455a11.636364 11.636364 0 0 0-19.083637-13.265455zM954.181818 110.312727a11.636364 11.636364 0 0 0-11.636363-17.221818 137.541818 137.541818 0 0 1-60.043637-8.145454 372.363636 372.363636 0 0 0-167.796363-12.334546 299.52 299.52 0 0 0-127.301819 52.130909 11.636364 11.636364 0 1 0 13.265455 19.083637 276.247273 276.247273 0 0 1 116.363636-48.174546 349.090909 349.090909 0 0 1 158.254546 11.869091 286.487273 286.487273 0 0 0 44.916363 8.843636 296.494545 296.494545 0 0 1-150.341818 81.687273A432.407273 432.407273 0 0 1 698.181818 209.454545a11.636364 11.636364 0 0 0 0 23.272728 452.421818 452.421818 0 0 0 74.938182-11.636364c11.403636-2.792727 21.876364-6.050909 31.883636-9.309091 112.872727 61.672727 143.36 203.869091 83.316364 390.981818a11.636364 11.636364 0 0 0 7.447273 14.661819h3.490909a11.636364 11.636364 0 0 0 11.170909-8.145455c60.974545-189.44 32.349091-336.523636-77.498182-408.436364A252.043636 252.043636 0 0 0 954.181818 110.312727z" fill="#604D42" p-id="18048"></path></svg>