<svg t="1671691553246" class="icon" viewBox="0 0 1024 1024" version="1.1" xmlns="http://www.w3.org/2000/svg"
    p-id="42630" width="128" height="128">
    <path
        d="M512 93.866667c294.186667 0 426.666667 110.293333 426.666667 384 0 173.525333-53.248 281.386667-167.210667 337.066666l28.629333 49.621334a42.666667 42.666667 0 0 1-73.898666 42.666666l-36.608-63.488c-50.901333 12.288-109.952 18.133333-177.578667 18.133334-76.202667 0-141.098667-6.4-195.584-20.48l-38.058667 65.834666a42.666667 42.666667 0 0 1-73.898666-42.666666l31.146666-53.845334C131.498667 755.157333 85.333333 650.453333 85.333333 477.866667c0-283.818667 124.885333-384 426.666667-384z m0 85.333333l-12.970667 0.042667c-12.842667 0.128-25.216 0.426667-37.162666 0.896l-23.338667 1.237333c-7.552 0.469333-14.933333 1.066667-22.186667 1.706667l-20.992 2.346666C227.968 206.506667 170.666667 285.141333 170.666667 477.866667l0.085333 11.648c2.304 184.234667 60.629333 260.096 224.597333 280.789333l21.034667 2.304c7.210667 0.682667 14.592 1.28 22.186667 1.749333l23.296 1.237334c7.936 0.298667 16.128 0.554667 24.490666 0.725333L512 776.533333c8.789333 0 17.365333-0.085333 25.728-0.298666l24.618667-0.853334c212.138667-10.24 290.986667-90.410667 290.986666-297.514666 0-207.104-78.848-287.274667-290.986666-297.514667l-24.618667-0.853333A1137.621333 1137.621333 0 0 0 512 179.2z"
        fill="#000000" p-id="42631"></path>
    <path
        d="M500.394667 288.938667a42.666667 42.666667 0 0 1 42.666666 42.666666l-0.042666 130.901334 115.072 66.474666a42.666667 42.666667 0 0 1 15.616 58.282667c-11.818667 20.48-37.888 27.562667-58.453334 15.872l-128.298666-72.789333a42.496 42.496 0 0 1-19.626667-24.32 42.752 42.752 0 0 1-9.6-26.965334V331.605333a42.666667 42.666667 0 0 1 42.666667-42.666666z"
        fill="#FA6400" p-id="42632"></path>
</svg>