<svg t="1671691292276" class="icon" viewBox="0 0 1024 1024" version="1.1" xmlns="http://www.w3.org/2000/svg"
    p-id="15281" width="128" height="128">
    <path
        d="M810.666667 960H213.333333c-34.133333 0-64-29.866667-64-64V128c0-34.133333 29.866667-64 64-64h426.666667c12.8 0 21.333333 8.533333 21.333333 21.333333v192H853.333333c12.8 0 21.333333 8.533333 21.333334 21.333334v597.333333c0 34.133333-29.866667 64-64 64zM213.333333 106.666667c-12.8 0-21.333333 8.533333-21.333333 21.333333v768c0 12.8 8.533333 21.333333 21.333333 21.333333h597.333334c12.8 0 21.333333-8.533333 21.333333-21.333333V320H640c-12.8 0-21.333333-8.533333-21.333333-21.333333V106.666667H213.333333z"
        p-id="15282"></path>
    <path
        d="M625.962667 101.504l30.208-30.165333 214.186666 214.186666-30.165333 30.165334zM593.066667 742.4l-29.866667-29.866667 89.6-89.6-89.6-89.6 29.866667-29.866666 106.666666 106.666666c8.533333 8.533333 8.533333 21.333333 0 29.866667l-106.666666 102.4zM430.933333 742.4l-106.666666-106.666667c-8.533333-8.533333-8.533333-21.333333 0-29.866666l106.666666-106.666667 29.866667 29.866667-89.6 89.6 89.6 89.6-29.866667 34.133333z"
        p-id="15283"></path>
</svg>