<?xml version="1.0" standalone="no"?><!DOCTYPE svg PUBLIC "-//W3C//DTD SVG 1.1//EN" "http://www.w3.org/Graphics/SVG/1.1/DTD/svg11.dtd"><svg t="1680255459416" class="icon" viewBox="0 0 1024 1024" version="1.1" xmlns="http://www.w3.org/2000/svg" p-id="3081" xmlns:xlink="http://www.w3.org/1999/xlink" width="1000" height="1000"><path d="M512 186.88A418.56 418.56 0 1 1 512 1024 418.56 418.56 0 0 1 512 186.88z m251.2 167.424a355.2 355.2 0 1 0-502.336 502.464 355.2 355.2 0 0 0 502.336-502.464z" fill="#999999" p-id="3082"></path><path d="M633.984 48.512H390.08a21.696 21.696 0 0 0-12.928 3.776c-1.344 1.024-2.24 1.92-2.24 2.496v33.088c0 0.512 0.832 1.472 2.24 2.496 3.072 2.304 7.68 3.776 12.928 3.776h243.904a21.248 21.248 0 0 0 12.928-3.776c1.344-1.024 2.24-1.984 2.24-2.496V54.72c0-0.512-0.832-1.472-2.24-2.496a21.696 21.696 0 0 0-12.928-3.712z" fill="#4AB4FA" p-id="3083"></path><path d="M390.08 0h243.904c14.784 0 28.48 4.736 38.592 12.416 11.84 9.024 19.2 21.824 19.2 36.48v33.088c0 14.656-7.36 27.52-19.2 36.48-10.176 7.68-23.872 12.48-38.592 12.48H390.08a64.64 64.64 0 0 1-38.592-12.416 45.696 45.696 0 0 1-19.2-36.48V48.896c0-14.656 7.36-27.52 19.2-36.48 10.176-7.68 23.808-12.416 38.592-12.416z m243.904 42.688H390.08a21.696 21.696 0 0 0-12.928 3.776c-1.344 1.024-2.24 1.92-2.24 2.496v33.088c0 0.512 0.832 1.472 2.24 2.496 3.072 2.304 7.68 3.776 12.928 3.776h243.904a21.248 21.248 0 0 0 12.928-3.776c1.344-1.024 2.24-1.984 2.24-2.496V48.896c0-0.512-0.832-1.472-2.24-2.496a21.696 21.696 0 0 0-12.928-3.712z" fill="#999999" p-id="3084"></path><path d="M473.152 96.64l39.296 50.816 42.048-51.328 32.96 27.008-58.944 72.064-16.896 20.672-16.384-21.184-55.744-72.064zM807.488 216.512a21.312 21.312 0 0 0-30.272 30.016l0.128 0.128 70.08 70.08a21.312 21.312 0 0 0 30.144-30.144l-70.08-70.08z" fill="#999999" p-id="3085"></path><path d="M547.776 587.712a31.04 31.04 0 1 0-43.84 43.904 31.04 31.04 0 0 0 43.84-43.904z" fill="#4AB4FA" p-id="3086"></path><path d="M524.8 522.368a83.072 83.072 0 1 1 0 166.144 83.072 83.072 0 0 1 0-166.144z m22.016 61.12a31.04 31.04 0 1 0-43.84 43.904 31.04 31.04 0 0 0 43.84-43.904z" fill="#999999" p-id="3087"></path><path d="M556.864 538.24a32 32 0 0 1-64 0v-128a32 32 0 0 1 64 0v128z" fill="#999999" p-id="3088"></path></svg>