<svg t="1680085284022" class="icon" viewBox="0 0 1210 1024" version="1.1" xmlns="http://www.w3.org/2000/svg" p-id="8850"
    width="1000" height="1000">
    <path
        d="M660.863598 567.551519s-59.338105-181.737489 52.124452-316.469892 336.714657-198.957175 336.714657-198.957174a532.414053 532.414053 0 0 1-91.450491 331.362592c-109.833668 155.209866-297.388619 184.064474-297.388618 184.064474z"
        fill="#73D36E" p-id="8851"></path>
    <path
        d="M698.09535 454.925469S564.526439 565.92263 400.241334 511.93659 79.350171 290.174967 79.350171 290.174967s193.372412-55.61493 374.644505-8.842541S698.09535 454.925469 698.09535 454.925469z"
        fill="#73D36E" p-id="8852"></path>
    <path
        d="M1179.781141 727.648053c33.04318 135.663196-55.61493 254.106707-192.441618 287.615284s-270.1629-31.181592-302.507985-166.844789 55.61493-254.106707 192.441618-287.615284 269.232106 29.785402 302.507985 166.844789z"
        fill="#7950EA" p-id="8853"></path>
    <path
        d="M973.377616 882.857919l11.169525 9.773335a19.54667 19.54667 0 0 0 15.1254 3.490476l19.313971-2.792381c15.125399-2.094286 23.269845 9.07524 15.125399 18.848574l-11.402224 12.565717a10.704129 10.704129 0 0 0-2.559683 12.333018l6.282858 12.100319c4.886667 9.540636-8.609843 21.175559-23.269845 19.54667l-18.383177-2.094286a26.062226 26.062226 0 0 0-16.754289 4.188572l-15.358097 10.238732c-12.100319 7.911747-29.320005 3.955874-29.320005-6.748255v-13.729209a10.704129 10.704129 0 0 0-7.911747-9.773335l-15.823495-5.817461c-12.333018-4.653969-9.540636-18.615876 4.886668-23.269845l18.383177-6.515557a19.54667 19.54667 0 0 0 11.867621-10.006033l5.584763-13.729209a23.269845 23.269845 0 0 1 33.04318-8.609842z"
        fill="#AD9CFF" p-id="8854"></path>
    <path
        d="M949.369536 940.048728a12.333018 20.244765 76.32 1 0 39.340913-9.575734 12.333018 20.244765 76.32 1 0-39.340913 9.575734Z"
        fill="#5737CC" p-id="8855"></path>
    <path
        d="M667.146456 311.350526C767.904885 215.246066 914.504908 232.69845 1011.540162 334.154974s107.739382 247.591151 7.213651 344.859103S771.395361 757.898851 674.825505 656.209629s-109.368271-247.591151-7.679049-344.859103z"
        fill="#7950EA" p-id="8856"></path>
    <path
        d="M909.850939 417.461019l2.559683-13.49651a17.917781 17.917781 0 0 0-4.188572-13.729209l-11.169526-14.194605c-8.609843-11.169526-3.955874-23.269845 8.144446-20.942861l15.358098 3.257779a10.006033 10.006033 0 0 0 10.936827-3.723175l6.748255-10.704129c5.352064-8.377144 20.94286-3.02508 26.294925 9.307938l6.980953 15.590796a23.269845 23.269845 0 0 0 10.936827 11.634923l15.358098 7.679048c12.100319 6.05016 16.754288 21.640956 8.144446 26.760322l-11.169526 6.282858a10.006033 10.006033 0 0 0-4.188572 10.936827l2.559683 15.358098c2.094286 12.100319-10.47143 16.288891-21.175559 7.213652l-13.729209-11.634922a17.917781 17.917781 0 0 0-13.729208-4.886668l-13.729209 1.628889a21.175559 21.175559 0 0 1-20.94286-22.339051z"
        fill="#AD9CFF" p-id="8857"></path>
    <path
        d="M945.773173 404.462646a18.615876 11.402224 46.29 1 0 16.484116-15.75807 18.615876 11.402224 46.29 1 0-16.484116 15.75807Z"
        fill="#5737CC" p-id="8858"></path>
    <path
        d="M819.796639 801.64616C791.174729 961.975392 641.549626 1047.143024 479.824204 1018.521115S205.938128 858.65728 234.327339 698.09535s178.479711-245.264166 340.205134-216.874956 273.886075 158.467644 245.264166 320.425766z"
        fill="#7950EA" p-id="8859"></path>
    <path
        d="M524.735004 868.430615l7.446351 15.823494a23.269845 23.269845 0 0 0 14.660002 10.936828l21.873654 6.050159c17.219685 4.886667 21.408257 20.94286 7.446351 27.225719l-17.917781 7.911747a12.565716 12.565716 0 0 0-8.377144 11.867621v16.056193c0 12.565716-19.081273 18.615876-33.741275 10.006034l-18.615876-10.704129a30.250798 30.250798 0 0 0-19.779368-3.490477l-21.175559 3.723175c-16.52159 3.02508-33.275878-9.540636-28.156513-20.94286l6.515557-14.660003a12.565716 12.565716 0 0 0-3.723175-14.194605L418.85721 900.543001c-11.169526-10.704129-1.628889-23.269845 16.288891-23.269845l23.269845 1.628889a23.269845 23.269845 0 0 0 17.452384-5.119366l12.333018-12.100319a26.760322 26.760322 0 0 1 36.533656 6.748255z"
        fill="#AD9CFF" p-id="8860"></path>
    <path
        d="M493.00139 936.54786a23.502543 14.427304 10 1 0 5.01055-28.416242 23.502543 14.427304 10 1 0-5.01055 28.416242Z"
        fill="#5737CC" p-id="8861"></path>
    <path
        d="M325.77783 592.450253a143.574944 143.574944 0 0 0-38.627943 65.388265 139.61907 139.61907 0 0 0-4.653969 80.746362c4.188572-3.257778 6.515557-43.049213 19.54667-77.255886a165.215899 165.215899 0 0 1 40.954927-63.526676c16.754288-18.383178-0.465397-20.244765-17.219685-5.352065zM742.773452 303.671477a143.574944 143.574944 0 0 0-57.709216 49.332071 139.61907 139.61907 0 0 0-30.483497 74.928901c4.886667-1.861588 20.012067-38.627943 43.514611-66.784455a165.215899 165.215899 0 0 1 59.338104-46.53969c21.873654-12.100319 6.282858-19.779368-14.660002-10.936827zM893.794746 628.285815a143.574944 143.574944 0 0 1 52.822548 54.451437 139.61907 139.61907 0 0 1 23.269845 77.488584c-4.886667-2.326984-16.288891-40.48953-36.999054-69.809535a165.215899 165.215899 0 0 0-54.684135-52.357152c-20.710162-13.49651-4.421271-19.313971 15.590796-9.773334z"
        fill="#FFFFFF" p-id="8862"></path>
    <path
        d="M1140.222404 702.51662A235.258133 235.258133 0 0 0 1039.929372 558.47628a263.414645 263.414645 0 0 0-71.671122-255.968295c-3.02508-3.257778-6.282858-6.05016-9.540637-9.07524a546.37596 546.37596 0 0 0 50.960961-265.043534 11.634922 11.634922 0 0 0-4.421271-7.911747 11.402224 11.402224 0 0 0-8.842541-2.326985 596.173429 596.173429 0 0 0-265.974328 130.078434 11.634922 11.634922 0 1 0 15.125399 17.685082 590.588666 590.588666 0 0 1 241.77369-122.166686 541.721991 541.721991 0 0 1-46.53969 234.327339 272.955282 272.955282 0 0 0-150.555897-63.759376 232.69845 232.69845 0 0 0-182.435585 65.853662 249.918135 249.918135 0 0 0-37.929847 46.53969 437.240387 437.240387 0 0 0-168.706376-84.004141c-182.435585-46.53969-372.31752 6.515557-380.927363 8.842541a11.634922 11.634922 0 0 0-5.119366 19.081273 1143.014786 1143.014786 0 0 0 205.938128 167.310186 11.634922 11.634922 0 0 0 16.056193-3.955874A11.634922 11.634922 0 0 0 232.69845 418.85721a1112.763987 1112.763987 0 0 1-186.15876-148.461611c53.055247-12.333018 205.70543-40.954927 349.047675-3.955874a413.505145 413.505145 0 0 1 162.888915 81.677156 228.742576 228.742576 0 0 0-24.666036 102.387318l-8.377144-1.861588a325.77783 325.77783 0 0 0-228.044481 38.627943A271.326393 271.326393 0 0 0 171.266059 674.825505c-28.156512 159.631137 81.444457 302.507985 255.968295 333.456878a365.103868 365.103868 0 0 0 63.526677 5.584763 313.212113 313.212113 0 0 0 164.750502-44.678102 271.791789 271.791789 0 0 0 32.577783-23.269845 252.710517 252.710517 0 0 0 177.781616 69.809535 312.048621 312.048621 0 0 0 73.998107-9.07524 281.332426 281.332426 0 0 0 166.844788-110.066367A234.327339 234.327339 0 0 0 1140.222404 702.51662z m-53.520643 178.247013a258.295279 258.295279 0 0 1-153.11558 100.758428 243.867975 243.867975 0 0 1-228.742576-52.822548 274.351472 274.351472 0 0 0 75.626996-147.298118 11.634922 11.634922 0 1 0-23.269845-3.955874 248.289246 248.289246 0 0 1-114.720336 171.266059 302.507985 302.507985 0 0 1-211.988288 36.06826c-162.888915-28.854608-262.251153-157.769549-235.956228-306.463859a245.264166 245.264166 0 0 1 114.720336-171.964154 303.904176 303.904176 0 0 1 211.988288-35.370165 292.036555 292.036555 0 0 1 211.057494 141.946055 11.634922 11.634922 0 1 0 20.477463-11.169526 308.092748 308.092748 0 0 0-195.699396-146.600023 208.032414 208.032414 0 0 1 67.249852-157.536851 211.290192 211.290192 0 0 1 164.517804-59.570803 257.597184 257.597184 0 0 1 162.888915 81.909855 241.308292 241.308292 0 0 1 67.48255 227.113687 282.495918 282.495918 0 0 0-196.63019-19.779369 11.634922 11.634922 0 0 0 5.584763 23.269845 259.226073 259.226073 0 0 1 182.202886 18.615876 209.428605 209.428605 0 0 1 106.808589 139.61907 211.522891 211.522891 0 0 1-31.181593 171.964155z"
        fill="#604D42" p-id="8863"></path>
    <path
        d="M772.093457 702.051223a11.634922 11.634922 0 0 0-10.936828 12.333018v14.660002a11.634922 11.634922 0 1 0 23.269845 0v-16.056193a11.634922 11.634922 0 0 0-12.333017-10.936827zM769.533774 687.623919a11.634922 11.634922 0 0 0 9.075239-13.729208 262.483851 262.483851 0 0 0-8.842541-32.112386 11.634922 11.634922 0 0 0-22.106353 7.44635 242.006388 242.006388 0 0 1 8.144446 29.320005 11.634922 11.634922 0 0 0 11.402224 9.307938z"
        fill="#604D42" p-id="8864"></path>
</svg>