<svg t="1697456521243" class="icon" viewBox="0 0 1448 1024" version="1.1" xmlns="http://www.w3.org/2000/svg" p-id="1502" width="128" height="128"><path d="M 1080.04 29.876 c -41.5018 29.2311 -81.9187 54.1345 -126.308 90.2217 c -33.5636 27.4272 -94.1919 64.9586 -97.4401 115.485 c -5.05215 76.8667 113.322 147.963 50.5215 245.399 c -23.8139 37.1691 -64.2363 53.0527 -115.479 75.7822 c -6.13403 -11.1837 13.355 -20.5659 21.6528 -32.4767 c 78.673 -114.036 -81.9213 -151.932 -61.3506 -292.316 c 19.8514 -135.692 179.726 -182.966 328.403 -202.096 Z" fill="#ff1515" p-id="1503"></path><path d="M 578.412 499.028 c -37.1715 17.3253 -99.2416 20.571 -126.31 57.7398 c 27.4297 20.5759 67.4844 19.8538 104.659 21.6554 c 152.292 6.85866 342.839 -6.1315 472.756 -28.8713 c 4.33005 9.38221 -18.0449 25.6233 -32.4791 36.0897 c -81.9187 59.9088 -336.706 76.8667 -512.454 64.961 c -58.8243 -3.96772 -193.435 -19.4915 -194.879 -72.1793 c -1.80398 -63.8764 163.117 -70.73 230.964 -75.7822 c 13.355 -1.08442 38.2561 -6.49886 57.7424 -3.61301 Z M 502.627 661.423 c 16.9604 2.16629 -11.9084 12.2731 -7.21844 25.2634 c 62.0724 61.353 255.146 44.0276 350.057 25.2634 c 19.8487 -3.96772 39.6951 -15.881 54.1319 -14.4343 c 36.0897 3.25071 59.1841 45.1121 90.2191 50.5241 c -109.708 49.4422 -321.547 72.8963 -476.366 43.3055 c -40.0601 -7.57568 -109.708 -29.2311 -111.874 -61.3478 c -3.24562 -43.673 68.9311 -62.0752 101.051 -68.5739 Z M 549.54 809.388 c 11.1887 3.60794 -3.97025 9.7496 -3.60794 14.4395 c 32.8415 57.0179 195.241 36.8067 277.881 18.0422 c 16.6006 -3.9728 33.2014 -15.5187 46.9161 -14.4343 c 41.8613 2.88587 57.7398 46.5511 93.8295 54.1319 c -115.125 70.3677 -394.087 98.8768 -508.848 10.8263 c -5.41196 -64.2413 46.1939 -71.4572 93.8295 -83.0057 Z" fill="#2365c4" p-id="1504"></path><path d="M 444.883 917.652 c -34.2831 8.66516 -123.061 -3.60794 -126.308 43.3105 c -1.08442 18.0422 30.3129 39.3354 50.5215 46.9135 c 117.648 44.39 354.028 51.2487 548.546 28.8713 c 90.2191 -10.4615 259.837 -40.7772 238.183 -133.527 c 27.0672 3.25071 51.246 20.571 54.1294 46.9184 c 10.8289 99.6064 -217.973 141.466 -310.356 151.57 c -201.013 22.0126 -452.188 17.6826 -606.286 -36.0897 c -50.1617 -17.3203 -110.793 -49.437 -108.263 -97.4375 c 4.33005 -80.8395 199.209 -103.217 259.837 -50.5291 Z" fill="#2365c4" p-id="1505"></path><path d="M 751.633 1216.83 c -135.331 -14.7915 -265.611 -34.6404 -375.317 -82.9982 c 286.903 68.9287 705.166 63.8764 905.821 -83.0083 c 10.8239 -7.93799 20.9308 -23.4567 36.0871 -21.6503 c -50.5215 151.57 -244.679 162.036 -411.41 187.654 l -155.181 0.00253339 Z" fill="#2365c4" p-id="1506"></path><path d="M 845.466 -215.522 c 25.2634 23.819 43.3082 68.2066 43.3082 115.483 c 0 139.661 -147.965 220.499 -220.141 313.97 c -15.881 20.9308 -36.4495 53.05 -36.0871 86.6112 c 0.719563 76.1444 79.3927 161.313 108.263 223.746 c -50.5241 -33.2014 -111.874 -77.5888 -155.181 -129.918 c -43.3055 -51.9659 -86.6112 -136.413 -46.9161 -209.312 c 59.5463 -109.708 236.742 -175.029 299.537 -292.316 c 15.1564 -28.5089 27.0647 -72.1769 7.21591 -108.267 Z" fill="#ff1515" p-id="1507"></path><path d="M 1058.39 535.117 c 74.3431 -63.5168 200.292 -38.6131 205.705 68.5689 c 6.13654 125.584 -131.363 195.961 -230.966 202.096 c 46.1914 -44.0276 168.173 -114.763 144.355 -216.53 c -9.74197 -41.1443 -60.9882 -66.0453 -119.092 -54.1345 Z" fill="#2365c4" p-id="1508"></path></svg>