<svg t="1698029993917" class="icon" viewBox="0 0 1024 1024" version="1.1" xmlns="http://www.w3.org/2000/svg" p-id="4244" width="100" height="100"><path d="M171.754197 920.199663c211.315451 153.599337 511.997789 148.013906 698.178803-93.090507s171.286533-527.357723-18.618102-687.473395z" fill="#897256" p-id="4245"></path><path d="M801.278751 742.62952C608.348675 972.563073 360.4952 1051.457278 188.510488 907.632444S34.911151 491.517878 228.073953 261.817051s442.179909-276.944259 613.931895-132.886699S994.441553 511.997789 801.278751 742.62952z" fill="#73D36E" p-id="4246"></path><path d="M682.588354 238.544424c-36.538024-29.32351-141.497571 46.545254-262.049777 197.119149s-182.922846 279.271521-146.384823 309.525936 147.548454-61.905187 268.100661-211.548177 176.871964-265.773398 140.333939-295.096908zM580.654249 572.506619c-3.258168 6.516335 79.126931 80.057836 98.210485 93.090507s51.199779 20.712638 33.04713-4.654526c-13.73085-19.083554-127.533995-95.883222-131.257615-88.435981zM517.119978 636.971795c-4.421799 5.352704 56.319757 90.297792 69.81788 107.054083s42.821633 29.788962 31.418046 2.559989c-8.145419-21.410817-96.115949-115.664955-101.235926-109.614072zM450.560265 691.895194c-4.421799 3.956347 35.141666 82.850551 45.148896 98.908664s31.883499 30.487141 25.832616 6.283609c-4.654525-19.083554-66.09426-109.381346-70.981512-105.192273zM379.346027 740.76771a398.194644 398.194644 0 0 0 11.403587 89.366887c4.654525 17.45447 17.687196 32.116225 18.850828 11.403587 0.930905-16.290839-25.134437-103.097737-30.254415-100.770474zM321.629913 767.996684a360.027536 360.027536 0 0 0-8.610872 80.988741c0 16.290839 8.843598 31.883499 14.196302 13.963576a302.544148 302.544148 0 0 0-5.58543-94.952317zM167.099671 628.360923c15.59266 4.887252 106.123178 0 105.192273-4.421799a398.660097 398.660097 0 0 0-89.599613-11.170861c-17.687196 1.163631-35.374393 10.239956-15.59266 15.59266zM253.20839 685.611585a358.398452 358.398452 0 0 0-80.290562 11.170861c-15.59266 4.421799-28.625331 16.290839-10.00723 17.221744a300.216885 300.216885 0 0 0 90.297792-28.392605zM205.732232 805.232886a259.489789 259.489789 0 0 0 57.483388-58.414293 309.758662 309.758662 0 0 0-56.78521 41.19255c-10.00723 9.774503-15.127207 24.203532-0.698178 17.221743zM741.933553 180.362858c8.610872-10.938135 11.636313-26.065342-1.861811-16.989018a259.489789 259.489789 0 0 0-48.174337 66.09426 309.758662 309.758662 0 0 0 50.036148-49.105242zM192.001382 510.601431c14.429029 10.705408 109.381346 39.330739 110.312251 33.279857s-72.377869-38.167108-88.435982-43.752539-40.028918-3.258168-21.876269 10.472682zM342.342551 458.9362c1.163631-5.119978-69.81788-42.356181-85.875993-48.872516s-39.796192-5.58543-23.272627 9.076324c14.661755 11.636313 107.752262 46.312527 109.14862 39.796192zM392.611425 398.194644c3.025441-5.119978-60.974282-68.421523-75.868764-80.290562s-40.727097-19.083554-26.996247 2.327262c10.938135 16.989018 99.374116 83.781456 102.865011 77.9633zM451.956623 340.245803c3.956347-3.72362-35.839845-75.636037-46.545254-89.832339s-30.719867-27.228973-23.272626-4.887251c5.119978 17.45447 65.396081 98.908664 69.81788 94.71959zM533.410817 267.867934a384.929247 384.929247 0 0 0-17.221744-85.41054c-5.58543-16.523565-19.31628-29.788962-19.083554-9.774503 0.465453 15.825386 31.650772 97.745032 36.305298 95.185043zM597.643267 226.908111a321.394976 321.394976 0 0 0 0-72.843322c-2.094536-14.429029-11.170861-27.4617-13.963577-10.938134a269.264292 269.264292 0 0 0 13.963577 83.781456zM651.635761 212.944535a295.329634 295.329634 0 0 0 12.334492-65.628807c0-13.265397-5.352704-26.763521-10.705408-12.334493A247.388023 247.388023 0 0 0 651.635761 212.944535zM639.068542 494.310593c-2.327263 6.516335 83.54873 64.697902 103.097737 75.403311s50.268874 13.032671 30.021688-8.378146c-15.825386-16.756291-130.559436-74.239679-133.119425-67.025165zM829.671356 438.456288c-18.850828-10.472682-137.541224-29.556236-137.773951-23.272626s93.090507 34.210761 113.337692 38.167108 48.407064-1.629084 24.436259-14.894482zM837.816775 325.816775c-19.083554-3.956347-125.904911 12.101766-124.043101 18.385375s88.901434 4.189073 107.28681 1.86181 41.425276-16.523565 16.756291-20.247185zM723.548177 277.875164c2.559989 4.421799 76.566942-16.989018 91.69415-23.272627s31.18532-23.272627 9.541777-21.17809c-17.221744 1.396358-103.330463 39.563466-101.235927 44.450717z" fill="#BBF4B5" p-id="4247"></path><path d="M686.544701 450.092602a35.374393 35.374393 0 0 0-27.694426 1.86181 35.374393 35.374393 0 0 0 17.221744 21.876269c10.239956 4.421799 19.083554 2.094536 21.876269-4.654525s-1.163631-14.661755-11.403587-19.083554zM602.530518 529.917712a35.374393 35.374393 0 0 0 11.170861 25.367163c8.843598 6.981788 17.919923 6.749062 23.272627 0s2.559989-14.429029-6.283609-21.410817a35.374393 35.374393 0 0 0-28.159879-3.956346zM549.934382 597.408329a35.374393 35.374393 0 0 0 4.887251 27.228974c6.981788 8.843598 15.825386 10.705408 21.410817 6.283609s5.818157-13.498124 0-23.272627a35.374393 35.374393 0 0 0-26.298068-10.239956zM484.771027 660.011695a35.374393 35.374393 0 0 0 0 27.694426c4.887252 10.00723 13.265397 13.73085 19.549006 10.472682s8.610872-11.86904 3.72362-22.108995a35.374393 35.374393 0 0 0-23.272626-16.058113zM411.927705 707.255128a34.210761 34.210761 0 0 0-7.912693 25.599889c2.094536 10.705408 8.843598 16.290839 15.59266 14.894481s11.170861-8.843598 9.076324-19.549006a34.210761 34.210761 0 0 0-16.756291-20.945364zM715.170032 368.638408a32.581677 32.581677 0 0 0-23.272627 9.774503 32.581677 32.581677 0 0 0 21.410817 14.196303c10.239956 0 17.221744-3.72362 17.919922-10.239956s-5.818157-12.799945-16.058112-13.73085zM301.382728 480.11429c-10.239956-4.654525-18.850828-2.094536-21.87627 4.4218s0 14.661755 11.403588 19.31628a35.374393 35.374393 0 0 0 27.694425-1.86181 35.374393 35.374393 0 0 0-17.221743-21.87627zM363.986094 398.660097c-8.843598-6.981788-17.919923-6.749062-23.272627-1.163632s-2.559989 14.429029 6.050883 21.410817a35.374393 35.374393 0 0 0 27.228973 5.119978 35.374393 35.374393 0 0 0-10.007229-25.367163zM427.753091 356.769368a35.374393 35.374393 0 0 0-4.887252-27.228973c-6.981788-8.843598-15.825386-10.705408-21.410816-6.283609s-6.050883 13.498124 0 23.272627a35.374393 35.374393 0 0 0 26.298068 10.239955zM494.080077 266.704303c-4.887252-10.00723-13.265397-13.73085-19.549006-10.705408s-8.610872 11.86904-3.72362 22.108995a35.374393 35.374393 0 0 0 23.272626 16.290839 35.374393 35.374393 0 0 0 0-27.694426zM566.22522 247.388023a34.210761 34.210761 0 0 0 8.14542-25.59989c-1.86181-10.705408-8.610872-16.290839-15.59266-14.894481s-11.170861 8.843598-9.076325 19.549007a34.210761 34.210761 0 0 0 16.523565 20.945364zM264.379251 561.103032c-10.239956 0-17.221744 3.72362-17.919923 10.239955s5.119978 12.567218 15.359934 13.498124a32.581677 32.581677 0 0 0 23.272627-9.541777 32.581677 32.581677 0 0 0-20.712638-14.196302zM246.459328 180.130131a11.636313 11.636313 0 0 0 7.912694-3.025441c11.403587-10.472682 23.272627-20.712638 34.676213-30.254415a11.636313 11.636313 0 1 0-14.661754-18.152649c-12.101766 9.774503-23.272627 20.479912-36.072572 31.18532a11.636313 11.636313 0 0 0 7.912693 20.247185zM191.070477 237.613519a11.636313 11.636313 0 0 0 8.843598-4.887251q8.843598-10.239956 17.919923-19.781733a11.636313 11.636313 0 1 0-16.989018-15.825386q-9.309051 10.00723-18.385375 20.479911a11.636313 11.636313 0 0 0 8.843598 19.316281z" fill="#604D42" p-id="4248"></path><path d="M438.458499 930.905071a302.544148 302.544148 0 0 1-289.744203-56.319757c-159.882946-134.05033-151.039348-382.601984 21.17809-605.088296a11.636313 11.636313 0 1 0-18.385375-13.498123c-180.362858 232.726268-187.577372 494.310593-17.687196 636.739068a312.318651 312.318651 0 0 0 204.799116 75.403311 384.463794 384.463794 0 0 0 106.58863-15.825386 11.636313 11.636313 0 1 0-6.516335-23.272627zM517.352704 898.788846l-6.981788 3.490894a10.938135 10.938135 0 0 0-4.421799 15.127208 11.86904 11.86904 0 0 0 10.705408 6.283609 12.799945 12.799945 0 0 0 5.585431-1.163632l5.352704-2.792715a11.636313 11.636313 0 0 0-10.472682-20.712638zM802.209656 96.348675C677.933829-7.912693 509.905464-15.825386 352.582507 74.937858c-13.963576 8.145419-27.927152 16.989018-41.19255 26.298068a11.636313 11.636313 0 1 0 13.265397 19.083554c12.799945-8.843598 26.065342-17.45447 39.563466-25.134436C514.792715 8.145419 669.090231 15.127207 787.315175 114.035871a305.56959 305.56959 0 0 1 112.406787 264.842493c-7.679967 106.123178-61.905187 221.089954-154.995694 332.565837a759.385812 759.385812 0 0 1-196.188244 170.355628 11.636313 11.636313 0 0 0 5.818157 21.643542 11.403587 11.403587 0 0 0 5.818156-1.629083 782.192986 782.192986 0 0 0 202.471853-175.475606c96.814127-116.363134 151.970253-234.820804 159.882946-345.598508a327.911311 327.911311 0 0 0-120.31948-284.391499z" fill="#604D42" p-id="4249"></path></svg>