<svg t="1671691347733" class="icon" viewBox="0 0 1024 1024" version="1.1" xmlns="http://www.w3.org/2000/svg"
    p-id="20392" width="128" height="128">
    <path
        d="M0 517.12v77.70112A426.38336 426.38336 0 0 0 158.72 926.72l47.69792 38.46144A103.91552 103.91552 0 0 0 368.64 921.6a203.28448 203.28448 0 0 1 193.80224-130.26304L675.84 793.6c148.76672 2.9696 278.86592-99.67616 310.5792-245.0432L993.28 517.12c36.1984-165.90848-44.07296-335.36-195.3792-412.43648l-26.66496-13.57824A554.56768 554.56768 0 0 0 256 97.28l-8.22272 4.43392A472.09472 472.09472 0 0 0 0 517.12z"
        fill="#FF7A45" p-id="20393"></path>
    <path d="M179.2 445.44m-87.04 0a87.04 87.04 0 1 0 174.08 0 87.04 87.04 0 1 0-174.08 0Z" fill="#CF5A1A" p-id="20394">
    </path>
    <path d="M384 240.64m-87.04 0a87.04 87.04 0 1 0 174.08 0 87.04 87.04 0 1 0-174.08 0Z" fill="#FFBB96" p-id="20395">
    </path>
    <path d="M650.24 230.4m-87.04 0a87.04 87.04 0 1 0 174.08 0 87.04 87.04 0 1 0-174.08 0Z" fill="#CF5A1A" p-id="20396">
    </path>
    <path d="M824.32 394.24m-87.04 0a87.04 87.04 0 1 0 174.08 0 87.04 87.04 0 1 0-174.08 0Z" fill="#FFBB96"
        p-id="20397"></path>
</svg>