<svg t="1670320868353" class="icon" viewBox="0 0 1024 1024" version="1.1" xmlns="http://www.w3.org/2000/svg"
    p-id="14351" width="128" height="128">
    <path
        d="M512 96c113.408 0 211.296 36.128 292.64 108.16C886.56 276.608 928 365.312 928 468.896c0 66.08-23.904 123.008-71.2 169.568-47.2 46.4-104.352 69.888-170.336 69.888h-77.952a41.28 41.28 0 0 0-30.72 13.12 41.28 41.28 0 0 0-13.12 30.656c0 13.664 3.456 23.136 10.048 29.696 16.32 16.384 24.864 36.256 24.864 58.592 0 24.832-8.32 46.144-24.864 62.72-16.576 16.512-37.888 24.864-62.72 24.864-115.264 0-213.92-40.608-294.656-121.344C136.608 725.952 96 627.296 96 512c0-115.264 40.608-213.92 121.344-294.688C298.08 136.64 396.736 96 512 96z m0 32c-106.816 0-197.312 37.248-272.032 112C165.248 314.656 128 405.152 128 512c0 106.88 37.248 197.344 111.968 272C314.688 858.784 405.184 896 512 896c16.64 0 29.76-5.184 40.064-15.488 10.336-10.336 15.52-23.424 15.52-40.096a48 48 0 0 0-11.84-31.968l-3.68-4c-13.28-13.28-19.392-31.04-19.392-51.936-0.224-20.608 8.192-40.32 21.696-52.864a73.248 73.248 0 0 1 48.096-23.136l6.048-0.16h77.952c57.568 0 106.656-20.16 147.872-60.704C875.552 575.104 896 526.368 896 468.896c0-94.176-37.344-174.272-112.576-240.768C708.032 161.376 617.728 128 512 128z m-240.128 252.64c17.76 0 33.12 6.144 46.144 18.496 12.992 12.288 19.52 28.032 19.52 47.2 0 19.2-6.528 34.88-19.52 47.2a64.896 64.896 0 0 1-46.144 18.496 68.416 68.416 0 0 1-47.264-18.496h0.032c-12.32-12.288-18.464-28.032-18.464-47.2 0-19.2 6.464-34.88 19.488-47.2a64.896 64.896 0 0 1 46.208-18.496z m480.256 0c17.824 0 33.216 6.144 46.208 18.496 13.024 12.288 19.52 28.032 19.52 47.2 0 19.2-6.496 34.88-19.52 47.2a64.896 64.896 0 0 1-46.208 18.496 68.416 68.416 0 0 1-47.2-18.496c-12.288-12.288-18.464-28.032-18.464-47.2 0-19.2 6.528-34.88 19.52-47.2a64.896 64.896 0 0 1 46.144-18.496zM403.232 206.176a63.04 63.04 0 0 1 46.144 19.52c13.024 12.992 19.52 28.352 19.52 46.176 0 17.76-6.496 33.152-19.52 46.144a63.136 63.136 0 0 1-46.144 19.52 68.64 68.64 0 0 1-47.264-18.464h0.064a68.48 68.48 0 0 1-18.496-47.2c0-17.824 6.496-33.184 19.52-46.208a63.136 63.136 0 0 1 46.176-19.488z m217.536 0c17.824 0 33.184 6.496 46.208 19.52 12.992 12.992 19.488 28.352 19.488 46.176a63.04 63.04 0 0 1-19.52 46.144 63.136 63.136 0 0 1-46.176 19.52 68.608 68.608 0 0 1-47.2-18.464 68.48 68.48 0 0 1-18.496-47.2c0-17.824 6.528-33.184 19.52-46.208a63.136 63.136 0 0 1 46.176-19.488z"
        p-id="14352" fill="#533ef9"></path>
</svg>