<svg t="1671687559480" class="icon" viewBox="0 0 1024 1024" version="1.1" xmlns="http://www.w3.org/2000/svg" p-id="8080"
	width="128" height="128">
	<path
		d="M196.26 733.74c-43.92 0-79.64 35.72-79.64 79.64 0 43.9 35.72 79.62 79.64 79.62 43.9 0 79.62-35.72 79.62-79.62 0-43.92-35.72-79.64-79.62-79.64z m0 139.26c-32.88 0-59.64-26.76-59.64-59.62 0-32.88 26.76-59.64 59.64-59.64 32.86 0 59.62 26.76 59.62 59.64 0 32.86-26.76 59.62-59.62 59.62z"
		fill="#23130D" p-id="8081"></path>
	<path
		d="M924.46 753.8L661.22 490.56l96.42-106.52c9.24 1.58 18.48 2.42 27.66 2.42 42.46 0 83.54-16.7 114.28-47.44 46.08-46.1 60.06-114.9 35.58-175.32a8.56 8.56 0 0 0-0.94-1.8 9.76 9.76 0 0 0-2.78-2.8c-0.24-0.16-0.5-0.28-0.76-0.4-0.32-0.18-0.62-0.38-0.96-0.52-0.28-0.12-0.58-0.18-0.88-0.28-0.32-0.1-0.64-0.22-0.98-0.28-0.26-0.06-0.54-0.06-0.8-0.1-0.38-0.04-0.74-0.1-1.12-0.1-0.28 0-0.58 0.06-0.86 0.08-0.36 0.02-0.7 0.02-1.06 0.1-1.28 0.24-2.52 0.74-3.66 1.48-0.56 0.38-1.08 0.8-1.56 1.28l-114.74 114.74-69.56-69.54 114.76-114.76a9.86 9.86 0 0 0 2.76-5.22c0.06-0.3 0.06-0.58 0.08-0.88 0.04-0.34 0.1-0.7 0.1-1.04-0.02-0.34-0.06-0.66-0.1-0.98-0.04-0.32-0.04-0.64-0.1-0.94-0.08-0.3-0.18-0.6-0.28-0.88-0.08-0.34-0.16-0.66-0.3-0.98-0.12-0.32-0.3-0.6-0.48-0.9-0.14-0.26-0.26-0.54-0.42-0.8-0.72-1.1-1.68-2.04-2.8-2.8-0.56-0.38-1.16-0.68-1.78-0.94-60.42-24.46-129.24-10.5-175.34 35.6-37.4 37.38-54 90.08-45.04 141.98l-164.48 148.9-218.6-218.58-27.54-71.56a9.968 9.968 0 0 0-5.12-5.48L125.5 66.2c-3.8-1.76-8.3-0.98-11.28 2L66.88 115.54a9.996 9.996 0 0 0-2 11.28l39.1 84.32c1.08 2.36 3.06 4.2 5.48 5.14L181 243.8l215.54 215.52L105.9 722.34c-0.06 0.06-0.12 0.14-0.18 0.2-0.06 0.04-0.12 0.08-0.16 0.12-50 50.02-50 131.4 0 181.4 25 25 57.84 37.5 90.7 37.5 32.84 0 65.68-12.5 90.68-37.5 0.06-0.04 0.1-0.12 0.16-0.18s0.14-0.1 0.2-0.18l210.5-232.6 254.68 254.68c22.96 22.96 53.48 35.6 85.96 35.6s63.02-12.64 85.98-35.62c22.98-22.96 35.62-53.5 35.64-85.98 0-32.48-12.64-63.02-35.6-85.98zM643.14 263.1l0.24-0.3c0.2-0.18 0.38-0.4 0.56-0.6 0.26-0.3 0.52-0.6 0.72-0.9 0.14-0.2 0.26-0.42 0.38-0.62 0.2-0.36 0.4-0.7 0.56-1.08 0.1-0.22 0.16-0.46 0.24-0.68 0.12-0.38 0.26-0.74 0.34-1.12 0.04-0.26 0.08-0.54 0.1-0.8 0.06-0.38 0.1-0.74 0.12-1.12 0-0.28-0.02-0.54-0.04-0.8-0.02-0.4-0.06-0.78-0.12-1.18-0.02-0.1-0.02-0.18-0.04-0.28-9.84-47.08 4.56-95.48 38.54-129.44a141.708 141.708 0 0 1 139.06-36.22l-110.5 110.52a9.97 9.97 0 0 0 0 14.14l83.68 83.7c1.88 1.88 4.42 2.92 7.08 2.92 2.64 0 5.18-1.04 7.06-2.92l110.52-110.52c13.96 49.16 0.52 102.36-36.22 139.08-33.96 33.98-82.34 48.38-129.42 38.52-0.12-0.02-0.22 0-0.32-0.02a7.74 7.74 0 0 0-0.98-0.1c-0.34-0.04-0.68-0.06-1.02-0.06-0.28 0.02-0.52 0.06-0.78 0.08-0.4 0.04-0.78 0.08-1.16 0.16-0.24 0.06-0.46 0.14-0.68 0.22-0.4 0.12-0.78 0.22-1.14 0.4-0.22 0.08-0.42 0.22-0.64 0.32-0.36 0.2-0.72 0.4-1.06 0.64-0.18 0.12-0.34 0.26-0.52 0.4-0.34 0.28-0.68 0.58-1 0.92-0.04 0.04-0.1 0.08-0.16 0.14l-99.48 109.9-19.4-19.4a10.006 10.006 0 0 0-7.08-2.94c-2.66 0-5.2 1.06-7.06 2.94l-48.18 48.18-90.1-90.1 167.9-151.98zM193.62 228.14c-0.02-0.02-0.06-0.04-0.08-0.06-0.18-0.18-0.38-0.3-0.56-0.46-0.32-0.28-0.66-0.58-1.02-0.8-0.02-0.02-0.08-0.04-0.1-0.06-0.54-0.34-1.1-0.62-1.7-0.86h-0.02L120.42 199.06 85.96 124.74l37.46-37.46 74.3 34.46 26.82 69.64c0.44 1.2 1.14 2.32 2.06 3.3 0.04 0.04 0.08 0.1 0.12 0.14 0.04 0.04 0.06 0.08 0.1 0.12L551.2 519.32 518 552.5 193.62 228.14z m79.12 661.84c-42.22 42.14-110.84 42.12-153.04-0.06-42.18-42.18-42.2-110.82-0.06-153.04l291.06-263.4 93.16 93.16-48.18 48.2a9.97 9.97 0 0 0 0 14.14l27.96 27.96-210.9 233.04z m637.54 21.64c-19.18 19.2-44.7 29.76-71.84 29.76s-52.64-10.56-71.82-29.74L504.16 649.18v-0.02h-0.02l-27.26-27.26 143.7-143.7 289.74 289.74c19.18 19.18 29.74 44.7 29.74 71.84-0.02 27.14-10.58 52.64-29.78 71.84z"
		fill="#23130D" p-id="8082"></path>
	<path
		d="M910.32 767.94L620.58 478.2l-143.7 143.7 27.26 27.26h0.02v0.02l262.46 262.46c19.18 19.18 44.68 29.74 71.82 29.74 27.14 0 52.66-10.56 71.84-29.76 19.2-19.2 29.76-44.7 29.78-71.84 0-27.14-10.56-52.66-29.74-71.84z m-83.5 107.54a9.88 9.88 0 0 1-7.06 2.92 9.96 9.96 0 0 1-7.08-2.92L562.38 625.16a9.97 9.97 0 0 1 0-14.14 10.006 10.006 0 0 1 14.14 0l250.3 250.32a10.006 10.006 0 0 1 0 14.14z m47.34-47.32c-1.94 1.94-4.5 2.92-7.06 2.92-2.56 0-5.12-0.98-7.08-2.92L609.7 577.84a10.006 10.006 0 0 1 0-14.14 9.97 9.97 0 0 1 14.14 0l250.32 250.32a9.97 9.97 0 0 1 0 14.14z"
		fill="#F9C139" p-id="8083"></path>
	<path
		d="M910.32 767.94L620.58 478.2l-25 25 289.74 289.74c19.18 19.18 29.74 44.7 29.74 71.84-0.02 21.16-6.44 41.32-18.36 58.26 4.8-3.36 9.34-7.18 13.58-11.42 19.2-19.2 29.76-44.7 29.78-71.84 0-27.14-10.56-52.66-29.74-71.84z"
		fill="#23130D" opacity=".2" p-id="8084"></path>
	<path
		d="M551.2 519.32L518 552.5 193.62 228.14c-0.02-0.02-0.06-0.04-0.08-0.06-0.18-0.18-0.38-0.3-0.56-0.46-0.32-0.28-0.66-0.58-1.02-0.8-0.02-0.02-0.08-0.04-0.1-0.06-0.54-0.34-1.1-0.62-1.7-0.86h-0.02L120.42 199.06 85.96 124.74l37.46-37.46 74.3 34.46 26.82 69.64c0.44 1.2 1.14 2.32 2.06 3.3 0.04 0.04 0.08 0.1 0.12 0.14 0.04 0.04 0.06 0.08 0.1 0.12L551.2 519.32z"
		fill="#E1E1E5" p-id="8085"></path>
	<path
		d="M551.2 519.32l-16.5 16.5-324.38-324.38c-0.04-0.04-0.06-0.08-0.1-0.12-0.04-0.04-0.08-0.1-0.12-0.14-0.92-0.98-1.62-2.1-2.06-3.3L181.22 138.24 106.92 103.78l16.5-16.5 74.3 34.46 26.82 69.64c0.44 1.2 1.14 2.32 2.06 3.3 0.04 0.04 0.08 0.1 0.12 0.14 0.04 0.04 0.06 0.08 0.1 0.12L551.2 519.32z"
		fill="#23130D" opacity=".2" p-id="8086"></path>
	<path
		d="M455.68 614.84l48.18-48.2-93.16-93.16-291.06 263.4c-42.14 42.22-42.12 110.86 0.06 153.04 42.2 42.18 110.82 42.2 153.04 0.06l210.9-233.04-27.96-27.96a9.97 9.97 0 0 1 0-14.14zM196.26 893c-43.92 0-79.64-35.72-79.64-79.62 0-43.92 35.72-79.64 79.64-79.64 43.9 0 79.62 35.72 79.62 79.64 0 43.9-35.72 79.62-79.62 79.62z"
		fill="#E1E1E5" p-id="8087"></path>
	<path
		d="M410.7 473.48L119.64 736.88a109.09 109.09 0 0 0-7.4 8.2l282.46-255.6 93.16 93.16 16-16-93.16-93.16z m44.98 141.36l-16 16a9.97 9.97 0 0 0 0 14.14l27.96 27.96-203.1 224.44c2.82-2.3 5.56-4.76 8.2-7.4l210.9-233.04-27.96-27.96a9.97 9.97 0 0 1 0-14.14z"
		fill="#23130D" opacity=".2" p-id="8088"></path>
	<path
		d="M885.42 324.88c-33.96 33.98-82.34 48.38-129.42 38.52-0.12-0.02-0.22 0-0.32-0.02a7.74 7.74 0 0 0-0.98-0.1c-0.34-0.04-0.68-0.06-1.02-0.06-0.28 0.02-0.52 0.06-0.78 0.08-0.4 0.04-0.78 0.08-1.16 0.16-0.24 0.06-0.46 0.14-0.68 0.22-0.4 0.12-0.78 0.22-1.14 0.4-0.22 0.08-0.42 0.22-0.64 0.32-0.36 0.2-0.72 0.4-1.06 0.64-0.18 0.12-0.34 0.26-0.52 0.4-0.34 0.28-0.68 0.58-1 0.92-0.04 0.04-0.1 0.08-0.16 0.14l-99.48 109.9-19.4-19.4a10.006 10.006 0 0 0-7.08-2.94c-2.66 0-5.2 1.06-7.06 2.94l-48.18 48.18-90.1-90.1 167.9-151.98 0.24-0.3c0.2-0.18 0.38-0.4 0.56-0.6 0.26-0.3 0.52-0.6 0.72-0.9 0.14-0.2 0.26-0.42 0.38-0.62 0.2-0.36 0.4-0.7 0.56-1.08 0.1-0.22 0.16-0.46 0.24-0.68 0.12-0.38 0.26-0.74 0.34-1.12 0.04-0.26 0.08-0.54 0.1-0.8 0.06-0.38 0.1-0.74 0.12-1.12 0-0.28-0.02-0.54-0.04-0.8-0.02-0.4-0.06-0.78-0.12-1.18-0.02-0.1-0.02-0.18-0.04-0.28-9.84-47.08 4.56-95.48 38.54-129.44a141.708 141.708 0 0 1 139.06-36.22l-110.5 110.52a9.97 9.97 0 0 0 0 14.14l83.68 83.7c1.88 1.88 4.42 2.92 7.08 2.92 2.64 0 5.18-1.04 7.06-2.92l110.52-110.52c13.96 49.16 0.52 102.36-36.22 139.08z"
		fill="#E1E1E5" p-id="8089"></path>
	<path
		d="M493.62 398.46l89.22 89.22-17.5 17.5-90.1-90.1zM645.16 439.5l18.52 18.52-16.62 18.38-19.4-19.4a10.006 10.006 0 0 0-7.08-2.94c-2.66 0-5.2 1.06-7.06 2.94l17.5-17.5c1.86-1.88 4.4-2.94 7.06-2.94 2.66 0 5.2 1.06 7.08 2.94z"
		fill="#23130D" opacity=".2" p-id="8090"></path>
	<path
		d="M826.82 875.48a9.88 9.88 0 0 1-7.06 2.92 9.96 9.96 0 0 1-7.08-2.92L562.38 625.16a9.97 9.97 0 0 1 0-14.14 10.006 10.006 0 0 1 14.14 0l250.3 250.32a10.006 10.006 0 0 1 0 14.14zM874.16 828.16c-1.94 1.94-4.5 2.92-7.06 2.92-2.56 0-5.12-0.98-7.08-2.92L609.7 577.84a10.006 10.006 0 0 1 0-14.14 9.97 9.97 0 0 1 14.14 0l250.32 250.32a9.97 9.97 0 0 1 0 14.14z"
		fill="#FFFFFF" p-id="8091"></path>
</svg>